<svg height="500pt" viewBox="0 -159 500.008 500" width="500pt" xmlns="http://www.w3.org/2000/svg"><path d="m356 57.378906h-320l10.960938-7.199218c134.550781-84.875 248.808593-31.675782 291.269531-5.203126zm0 0" fill="#5d9cec"/><path d="m250.910156 57.378906h16.570313l10.785156-40.25c-4.929687-1.589844-10.050781-3.128906-15.363281-4.511718zm0 0" fill="#87bcf4"/><path d="m271.625 57.378906h4.136719l10.085937-37.640625c-1.230468-.457031-2.511718-.871093-3.785156-1.3125zm0 0" fill="#87bcf4"/><path d="m151.144531 57.378906h16.558594l14.152344-52.816406c-5.566407.34375-11.222657.832031-16.984375 1.558594zm0 0" fill="#87bcf4"/><path d="m171.839844 57.378906h4.144531l14.246094-53.183594c-1.390625.03125-2.765625.0625-4.167969.125zm0 0" fill="#87bcf4"/><path d="m496 133.378906h-4v-40.488281c1.222656 0 2.441406-.5625 3.222656-1.640625 1.304688-1.785156.921875-4.28125-.855468-5.59375-1.335938-.980469-33.847657-24.09375-136.824219-32.167969-2.230469-1.765625-8.085938-6.214843-17.191407-11.902343-43.449218-27.082032-159.191406-80.785157-295.527343 5.199218-3.375 2.144532-6.679688 4.328125-10.039063 6.59375h-26.785156c-2.207031 0-4 1.78125-4 4v48l-4 4v24c0 11.046875 8.945312 20 20 20h49.246094v-7.890625h-16.300782c-.5625-1.40625-.945312-2.832031-.945312-4.109375 0-19.921875 16.078125-36 36-36s36 16.078125 36 36c0 3.671875-.558594 7.277344-1.601562 10.71875l-.710938 1.28125h244.832031l-.910156-1.28125c-1.042969-3.359375-1.601563-6.953125-1.601563-10.71875 0-19.921875 16.082032-36 36-36 19.921876 0 36 16.078125 36 36 0 3.671875-.558593 7.277344-1.601562 10.71875l-6.414062 1.28125h68.015624l4-4v-12zm-436-76h-16.71875c1.925781-1.28125 3.855469-2.59375 5.816406-3.832031 132.488282-83.5625 244.855469-31.472656 287.023438-5.183594 5.925781 3.703125 10.390625 6.839844 13.320312 9.015625zm0 0" fill="#545c66"/><path d="m28 57.363281v-3.984375h-20c-2.207031 0-4 1.78125-4 4v7.984375h8c16 0 16-8 16-8zm0 0" fill="#ed5565"/><path d="m356 61.378906h-320c-2.207031 0-4-1.800781-4-4 0-2.21875 1.792969-4 4-4h320c2.207031 0 4 1.78125 4 4 0 2.199219-1.792969 4-4 4zm0 0" fill="#545c66"/><path d="m220 58.195312c-2.207031 0-4-1.800781-4-4v-48.144531c0-2.21875 1.792969-4 4-4s4 1.78125 4 4v48.144531c0 2.199219-1.792969 4-4 4zm0 0" fill="#545c66"/><path d="m116 63.378906c-2.207031 0-4-1.800781-4-4v-42.144531c0-2.199219 1.792969-4 4-4s4 1.800781 4 4v42.144531c0 2.199219-1.792969 4-4 4zm0 0" fill="#545c66"/><path d="m140 85.378906h-16c-2.207031 0-4-1.800781-4-4 0-2.21875 1.792969-4 4-4h16c2.207031 0 4 1.78125 4 4 0 2.199219-1.792969 4-4 4zm0 0" fill="#656d78"/><path d="m252 85.378906h-16c-2.207031 0-4-1.800781-4-4 0-2.21875 1.792969-4 4-4h16c2.207031 0 4 1.78125 4 4 0 2.199219-1.792969 4-4 4zm0 0" fill="#656d78"/><path d="m400 181.378906c-17.632812 0-32.992188-11.296875-38.214844-28.097656-1.175781-3.832031-1.785156-7.832031-1.785156-11.902344 0-22.066406 17.945312-40 40-40s40 17.933594 40 40c0 3.984375-.59375 7.984375-1.777344 11.871094-5.230468 16.832031-20.589844 28.128906-38.222656 28.128906zm0 0" fill="#656d78"/><path d="m432 141.378906c0 3.261719-.503906 6.453125-1.425781 9.527344-4.039063 13-16.214844 22.472656-30.574219 22.472656s-26.535156-9.472656-30.574219-22.472656c-.921875-3-1.425781-6.199219-1.425781-9.527344 0-17.722656 14.289062-32 32-32s32 14.277344 32 32zm0 0" fill="#ccd1d9"/><g fill="#aab2bd"><path d="m400.238281 137.378906h-.078125c-2.199218 0-3.953125 1.78125-3.953125 4 0 2.199219 1.832031 4 4.039063 4 2.203125 0 4-1.800781 4-4-.007813-2.21875-1.796875-4-4.007813-4zm0 0"/><path d="m400 133.378906c2.207031 0 4-1.800781 4-4v-8c0-2.21875-1.792969-4-4-4s-4 1.78125-4 4v8c0 2.199219 1.792969 4 4 4zm0 0"/><path d="m400 149.378906c-2.207031 0-4 1.78125-4 4v8c0 2.199219 1.792969 4 4 4s4-1.800781 4-4v-8c0-2.21875-1.792969-4-4-4zm0 0"/><path d="m388.671875 124.394531c-1.558594-1.5625-4.097656-1.5625-5.65625 0-1.558594 1.558594-1.558594 4.09375 0 5.65625l5.671875 5.671875c.785156.78125 1.808594 1.167969 2.832031 1.167969 1.023438 0 2.046875-.394531 2.832031-1.167969 1.558594-1.5625 1.558594-4.097656 0-5.65625zm0 0"/><path d="m411.3125 147.035156c-1.558594-1.5625-4.097656-1.5625-5.65625 0-1.558594 1.558594-1.558594 4.09375 0 5.65625l5.671875 5.671875c.785156.78125 1.808594 1.167969 2.832031 1.167969 1.023438 0 2.046875-.394531 2.832032-1.167969 1.558593-1.5625 1.558593-4.097656 0-5.65625zm0 0"/><path d="m392 141.378906c0-2.21875-1.792969-4-4-4h-8c-2.207031 0-4 1.78125-4 4 0 2.199219 1.792969 4 4 4h8c2.207031 0 4-1.800781 4-4zm0 0"/><path d="m420 137.378906h-8c-2.207031 0-4 1.78125-4 4 0 2.199219 1.792969 4 4 4h8c2.207031 0 4-1.800781 4-4 0-2.21875-1.792969-4-4-4zm0 0"/><path d="m388.6875 147.035156-5.671875 5.671875c-1.558594 1.558594-1.558594 4.09375 0 5.65625.785156.78125 1.808594 1.167969 2.832031 1.167969 1.023438 0 2.046875-.394531 2.832032-1.167969l5.671874-5.671875c1.558594-1.5625 1.558594-4.097656 0-5.65625-1.558593-1.5625-4.105468-1.5625-5.664062 0zm0 0"/><path d="m408.488281 136.890625c1.023438 0 2.046875-.394531 2.832031-1.167969l5.671876-5.671875c1.558593-1.5625 1.558593-4.097656 0-5.65625-1.558594-1.5625-4.097657-1.5625-5.65625 0l-5.671876 5.671875c-1.558593 1.558594-1.558593 4.09375 0 5.65625.777344.78125 1.800782 1.167969 2.824219 1.167969zm0 0"/></g><path d="m88 181.378906c-17.632812 0-32.992188-11.296875-38.214844-28.097656-1.175781-3.832031-1.785156-7.832031-1.785156-11.902344 0-22.066406 17.945312-40 40-40s40 17.933594 40 40c0 3.984375-.59375 7.984375-1.777344 11.871094-5.230468 16.832031-20.589844 28.128906-38.222656 28.128906zm0 0" fill="#656d78"/><path d="m120 141.378906c0 3.261719-.503906 6.453125-1.425781 9.527344-4.039063 13-16.214844 22.472656-30.574219 22.472656s-26.535156-9.472656-30.574219-22.472656c-.921875-3-1.425781-6.199219-1.425781-9.527344 0-17.722656 14.289062-32 32-32s32 14.277344 32 32zm0 0" fill="#ccd1d9"/><path d="m88.238281 137.378906h-.078125c-2.199218 0-3.953125 1.78125-3.953125 4 0 2.199219 1.832031 4 4.039063 4 2.203125 0 4-1.800781 4-4-.007813-2.21875-1.796875-4-4.007813-4zm0 0" fill="#aab2bd"/><path d="m88 133.378906c2.207031 0 4-1.800781 4-4v-8c0-2.21875-1.792969-4-4-4s-4 1.78125-4 4v8c0 2.199219 1.792969 4 4 4zm0 0" fill="#aab2bd"/><path d="m88 149.378906c-2.207031 0-4 1.78125-4 4v8c0 2.199219 1.792969 4 4 4s4-1.800781 4-4v-8c0-2.21875-1.792969-4-4-4zm0 0" fill="#aab2bd"/><path d="m76.671875 124.394531c-1.558594-1.5625-4.097656-1.5625-5.65625 0-1.558594 1.558594-1.558594 4.09375 0 5.65625l5.671875 5.671875c.785156.78125 1.808594 1.167969 2.832031 1.167969 1.023438 0 2.046875-.394531 2.832031-1.167969 1.558594-1.5625 1.558594-4.097656 0-5.65625zm0 0" fill="#aab2bd"/><path d="m99.3125 147.035156c-1.558594-1.5625-4.097656-1.5625-5.65625 0-1.558594 1.558594-1.558594 4.09375 0 5.65625l5.671875 5.671875c.785156.78125 1.808594 1.167969 2.832031 1.167969 1.023438 0 2.046875-.394531 2.832032-1.167969 1.558593-1.5625 1.558593-4.097656 0-5.65625zm0 0" fill="#aab2bd"/><path d="m80 141.378906c0-2.21875-1.792969-4-4-4h-8c-2.207031 0-4 1.78125-4 4 0 2.199219 1.792969 4 4 4h8c2.207031 0 4-1.800781 4-4zm0 0" fill="#aab2bd"/><path d="m108 137.378906h-8c-2.207031 0-4 1.78125-4 4 0 2.199219 1.792969 4 4 4h8c2.207031 0 4-1.800781 4-4 0-2.21875-1.792969-4-4-4zm0 0" fill="#aab2bd"/><path d="m76.6875 147.035156-5.671875 5.671875c-1.558594 1.558594-1.558594 4.09375 0 5.65625.785156.78125 1.808594 1.167969 2.832031 1.167969 1.023438 0 2.046875-.394531 2.832032-1.167969l5.671874-5.671875c1.558594-1.5625 1.558594-4.097656 0-5.65625-1.558593-1.5625-4.105468-1.5625-5.664062 0zm0 0" fill="#aab2bd"/><path d="m96.488281 136.890625c1.023438 0 2.046875-.394531 2.832031-1.167969l5.671876-5.671875c1.558593-1.5625 1.558593-4.097656 0-5.65625-1.558594-1.5625-4.097657-1.5625-5.65625 0l-5.671876 5.671875c-1.558593 1.558594-1.558593 4.09375 0 5.65625.777344.78125 1.800782 1.167969 2.824219 1.167969zm0 0" fill="#aab2bd"/><path d="m496 88.890625c0-2.214844-1.792969-4-4-4s-4 1.785156-4 4v64.488281h8zm0 0" fill="#545c66"/><path d="m495.785156 87.800781c-.074218-.246093-.144531-.488281-.25-.703125-.101562-.214844-.253906-.40625-.414062-.609375-.167969-.214843-.335938-.421875-.546875-.605469-.078125-.066406-.117188-.160156-.199219-.21875-.574219-.421874-7.007812-4.964843-22.359375-10.652343v14.375l23.992187 8v-8.488281c0-.113282-.046874-.183594-.0625-.296876-.023437-.289062-.089843-.535156-.160156-.800781zm0 0" fill="#e6e9ed"/><path d="m8 109.378906c0 2.207032-1.789062 4-4 4s-4-1.792968-4-4c0-2.210937 1.789062-4 4-4s4 1.789063 4 4zm0 0" fill="#545c66"/><path d="m500 149.378906c0 2.207032-1.789062 4-4 4s-4-1.792968-4-4c0-2.210937 1.789062-4 4-4s4 1.789063 4 4zm0 0" fill="#545c66"/><path d="m500 137.378906c0 2.207032-1.789062 4-4 4s-4-1.792968-4-4c0-2.210937 1.789062-4 4-4s4 1.789063 4 4zm0 0" fill="#545c66"/></svg>